<?xml version="1.0" standalone="no"?><!DOCTYPE svg PUBLIC "-//W3C//DTD SVG 1.1//EN" "http://www.w3.org/Graphics/SVG/1.1/DTD/svg11.dtd"><svg xmlns:xlink="http://www.w3.org/1999/xlink" version="1.1" style="font-family:'lucida grande', 'lucida sans unicode', arial, helvetica, sans-serif;font-size:12px;" xmlns="http://www.w3.org/2000/svg" width="600" height="400"><desc>Created with Highcharts 4.1.9</desc><defs><clipPath id="highcharts-5"><rect x="0" y="0" width="580" height="340"></rect></clipPath></defs><rect x="0" y="0" width="600" height="400" strokeWidth="0" fill="#FFFFFF" class=" highcharts-background"></rect><g style="text-align:center;" transform="translate(335,50)"><rect x="0.5" y="0.5" width="70" height="30" strokeWidth="3" fill="none" stroke="black" stroke-width="5" rx="10" ry="10"  stroke-opacity="0.049999999999999996" transform="translate(1, 1)"></rect><rect x="0.5" y="0.5" width="70" height="30" strokeWidth="3" fill="none" stroke="black" stroke-width="3" rx="10" ry="10"  stroke-opacity="0.09999999999999999" transform="translate(1, 1)"></rect><rect x="0.5" y="0.5" width="70" height="30" strokeWidth="3" fill="none" stroke="black" stroke-width="1" rx="10" ry="10"  stroke-opacity="0.15" transform="translate(1, 1)"></rect><rect x="0.5" y="0.5" width="70" height="30" strokeWidth="3" fill="#7cb5ec" stroke="white" stroke-width="3" rx="10" ry="10"></rect><text x="33.328125"  style="font-size:10px;font-weight:bold;color:white;fill:white;" y="15">/</text></g><g style="text-align:center;" transform="translate(110,100)"><rect x="0.5" y="0.5" width="70" height="30" strokeWidth="3" fill="none" stroke="black" stroke-width="5" rx="10" ry="10"  stroke-opacity="0.049999999999999996" transform="translate(1, 1)"></rect><rect x="0.5" y="0.5" width="70" height="30" strokeWidth="3" fill="none" stroke="black" stroke-width="3" rx="10" ry="10"  stroke-opacity="0.09999999999999999" transform="translate(1, 1)"></rect><rect x="0.5" y="0.5" width="70" height="30" strokeWidth="3" fill="none" stroke="black" stroke-width="1" rx="10" ry="10"  stroke-opacity="0.15" transform="translate(1, 1)"></rect><rect x="0.5" y="0.5" width="70" height="30" strokeWidth="3" fill="#7cb5ec" stroke="white" stroke-width="3" rx="10" ry="10"></rect><text x="22.3203125"  style="font-size:10px;font-weight:bold;color:white;fill:white;" y="15">user</text></g><g style="text-align:center;" transform="translate(20,150)"><rect x="0.5" y="0.5" width="70" height="30" strokeWidth="3" fill="none" stroke="black" stroke-width="5" rx="10" ry="10"  stroke-opacity="0.049999999999999996" transform="translate(1, 1)"></rect><rect x="0.5" y="0.5" width="70" height="30" strokeWidth="3" fill="none" stroke="black" stroke-width="3" rx="10" ry="10"  stroke-opacity="0.09999999999999999" transform="translate(1, 1)"></rect><rect x="0.5" y="0.5" width="70" height="30" strokeWidth="3" fill="none" stroke="black" stroke-width="1" rx="10" ry="10"  stroke-opacity="0.15" transform="translate(1, 1)"></rect><rect x="0.5" y="0.5" width="70" height="30" strokeWidth="3" fill="#7cb5ec" stroke="white" stroke-width="3" rx="10" ry="10"></rect><text x="20.6640625"  style="font-size:10px;font-weight:bold;color:white;fill:white;" y="15">login</text></g><path fill="none" d="M 0 0 C 0 11.11111111111111 -90 0 -90 20" stroke="#434348" stroke-width="2" transform="translate(145,130)"></path><g style="text-align:center;" transform="translate(110,150)"><rect x="0.5" y="0.5" width="70" height="30" strokeWidth="3" fill="none" stroke="black" stroke-width="5" rx="10" ry="10"  stroke-opacity="0.049999999999999996" transform="translate(1, 1)"></rect><rect x="0.5" y="0.5" width="70" height="30" strokeWidth="3" fill="none" stroke="black" stroke-width="3" rx="10" ry="10"  stroke-opacity="0.09999999999999999" transform="translate(1, 1)"></rect><rect x="0.5" y="0.5" width="70" height="30" strokeWidth="3" fill="none" stroke="black" stroke-width="1" rx="10" ry="10"  stroke-opacity="0.15" transform="translate(1, 1)"></rect><rect x="0.5" y="0.5" width="70" height="30" strokeWidth="3" fill="#7cb5ec" stroke="white" stroke-width="3" rx="10" ry="10"></rect><text x="16.671875"  style="font-size:10px;font-weight:bold;color:white;fill:white;" y="15">logout</text></g><path fill="none" d="M 0 0 C 0 11.11111111111111 0 0 0 20" stroke="#434348" stroke-width="2" transform="translate(145,130)"></path><g style="text-align:center;" transform="translate(200,150)"><rect x="0.5" y="0.5" width="70" height="30" strokeWidth="3" fill="none" stroke="black" stroke-width="5" rx="10" ry="10"  stroke-opacity="0.049999999999999996" transform="translate(1, 1)"></rect><rect x="0.5" y="0.5" width="70" height="30" strokeWidth="3" fill="none" stroke="black" stroke-width="3" rx="10" ry="10"  stroke-opacity="0.09999999999999999" transform="translate(1, 1)"></rect><rect x="0.5" y="0.5" width="70" height="30" strokeWidth="3" fill="none" stroke="black" stroke-width="1" rx="10" ry="10"  stroke-opacity="0.15" transform="translate(1, 1)"></rect><rect x="0.5" y="0.5" width="70" height="30" strokeWidth="3" fill="#7cb5ec" stroke="white" stroke-width="3" rx="10" ry="10"></rect><text x="24"  style="font-size:10px;font-weight:bold;color:white;fill:white;" y="15">:uid</text></g><path fill="none" d="M 0 0 C 0 11.11111111111111 90 0 90 20" stroke="#434348" stroke-width="2" transform="translate(145,130)"></path><path fill="none" d="M 0 0 C 0 11.11111111111111 -225 0 -225 20" stroke="#434348" stroke-width="2" transform="translate(370,80)"></path><g style="text-align:center;" transform="translate(290,100)"><rect x="0.5" y="0.5" width="70" height="30" strokeWidth="3" fill="none" stroke="black" stroke-width="5" rx="10" ry="10"  stroke-opacity="0.049999999999999996" transform="translate(1, 1)"></rect><rect x="0.5" y="0.5" width="70" height="30" strokeWidth="3" fill="none" stroke="black" stroke-width="3" rx="10" ry="10"  stroke-opacity="0.09999999999999999" transform="translate(1, 1)"></rect><rect x="0.5" y="0.5" width="70" height="30" strokeWidth="3" fill="none" stroke="black" stroke-width="1" rx="10" ry="10"  stroke-opacity="0.15" transform="translate(1, 1)"></rect><rect x="0.5" y="0.5" width="70" height="30" strokeWidth="3" fill="#7cb5ec" stroke="white" stroke-width="3" rx="10" ry="10"></rect><text x="18.9921875"  style="font-size:10px;font-weight:bold;color:white;fill:white;" y="15">:page</text></g><path fill="none" d="M 0 0 C 0 11.11111111111111 -45 0 -45 20" stroke="#434348" stroke-width="2" transform="translate(370,80)"></path><g style="text-align:center;" transform="translate(515,100)"><rect x="0.5" y="0.5" width="70" height="30" strokeWidth="3" fill="none" stroke="black" stroke-width="5" rx="10" ry="10"  stroke-opacity="0.049999999999999996" transform="translate(1, 1)"></rect><rect x="0.5" y="0.5" width="70" height="30" strokeWidth="3" fill="none" stroke="black" stroke-width="3" rx="10" ry="10"  stroke-opacity="0.09999999999999999" transform="translate(1, 1)"></rect><rect x="0.5" y="0.5" width="70" height="30" strokeWidth="3" fill="none" stroke="black" stroke-width="1" rx="10" ry="10"  stroke-opacity="0.15" transform="translate(1, 1)"></rect><rect x="0.5" y="0.5" width="70" height="30" strokeWidth="3" fill="#7cb5ec" stroke="white" stroke-width="3" rx="10" ry="10"></rect><text x="22.328125"  style="font-size:10px;font-weight:bold;color:white;fill:white;" y="15">post</text></g><g style="text-align:center;" transform="translate(470,150)"><rect x="0.5" y="0.5" width="70" height="30" strokeWidth="3" fill="none" stroke="black" stroke-width="5" rx="10" ry="10"  stroke-opacity="0.049999999999999996" transform="translate(1, 1)"></rect><rect x="0.5" y="0.5" width="70" height="30" strokeWidth="3" fill="none" stroke="black" stroke-width="3" rx="10" ry="10"  stroke-opacity="0.09999999999999999" transform="translate(1, 1)"></rect><rect x="0.5" y="0.5" width="70" height="30" strokeWidth="3" fill="none" stroke="black" stroke-width="1" rx="10" ry="10"  stroke-opacity="0.15" transform="translate(1, 1)"></rect><rect x="0.5" y="0.5" width="70" height="30" strokeWidth="3" fill="#7cb5ec" stroke="white" stroke-width="3" rx="10" ry="10"></rect><text x="24"  style="font-size:10px;font-weight:bold;color:white;fill:white;" y="15">:pid</text></g><g style="text-align:center;" transform="translate(380,200)"><rect x="0.5" y="0.5" width="70" height="30" strokeWidth="3" fill="none" stroke="black" stroke-width="5" rx="10" ry="10"  stroke-opacity="0.049999999999999996" transform="translate(1, 1)"></rect><rect x="0.5" y="0.5" width="70" height="30" strokeWidth="3" fill="none" stroke="black" stroke-width="3" rx="10" ry="10"  stroke-opacity="0.09999999999999999" transform="translate(1, 1)"></rect><rect x="0.5" y="0.5" width="70" height="30" strokeWidth="3" fill="none" stroke="black" stroke-width="1" rx="10" ry="10"  stroke-opacity="0.15" transform="translate(1, 1)"></rect><rect x="0.5" y="0.5" width="70" height="30" strokeWidth="3" fill="#7cb5ec" stroke="white" stroke-width="3" rx="10" ry="10"></rect><text x="4.984375"  style="font-size:10px;font-weight:bold;color:white;fill:white;" y="15">comments</text></g><path fill="none" d="M 0 0 C 0 11.11111111111111 -90 0 -90 20" stroke="#434348" stroke-width="2" transform="translate(505,180)"></path><g style="text-align:center;" transform="translate(470,200)"><rect x="0.5" y="0.5" width="70" height="30" strokeWidth="3" fill="none" stroke="black" stroke-width="5" rx="10" ry="10"  stroke-opacity="0.049999999999999996" transform="translate(1, 1)"></rect><rect x="0.5" y="0.5" width="70" height="30" strokeWidth="3" fill="none" stroke="black" stroke-width="3" rx="10" ry="10"  stroke-opacity="0.09999999999999999" transform="translate(1, 1)"></rect><rect x="0.5" y="0.5" width="70" height="30" strokeWidth="3" fill="none" stroke="black" stroke-width="1" rx="10" ry="10"  stroke-opacity="0.15" transform="translate(1, 1)"></rect><rect x="0.5" y="0.5" width="70" height="30" strokeWidth="3" fill="#7cb5ec" stroke="white" stroke-width="3" rx="10" ry="10"></rect><text x="24.328125"  style="font-size:10px;font-weight:bold;color:white;fill:white;" y="15">edit</text></g><path fill="none" d="M 0 0 C 0 11.11111111111111 0 0 0 20" stroke="#434348" stroke-width="2" transform="translate(505,180)"></path><g style="text-align:center;" transform="translate(560,200)"><rect x="0.5" y="0.5" width="70" height="30" strokeWidth="3" fill="none" stroke="black" stroke-width="5" rx="10" ry="10"  stroke-opacity="0.049999999999999996" transform="translate(1, 1)"></rect><rect x="0.5" y="0.5" width="70" height="30" strokeWidth="3" fill="none" stroke="black" stroke-width="3" rx="10" ry="10"  stroke-opacity="0.09999999999999999" transform="translate(1, 1)"></rect><rect x="0.5" y="0.5" width="70" height="30" strokeWidth="3" fill="none" stroke="black" stroke-width="1" rx="10" ry="10"  stroke-opacity="0.15" transform="translate(1, 1)"></rect><rect x="0.5" y="0.5" width="70" height="30" strokeWidth="3" fill="#7cb5ec" stroke="white" stroke-width="3" rx="10" ry="10"></rect><text x="24.328125"  style="font-size:10px;font-weight:bold;color:white;fill:white;" y="15">edit</text></g><path fill="none" d="M 0 0 C 0 11.11111111111111 90 0 90 20" stroke="#434348" stroke-width="2" transform="translate(505,180)"></path><path fill="none" d="M 0 0 C 0 11.11111111111111 -45 0 -45 20" stroke="#434348" stroke-width="2" transform="translate(550,130)"></path><g style="text-align:center;" transform="translate(650,150)"><rect x="0.5" y="0.5" width="70" height="30" strokeWidth="3" fill="none" stroke="black" stroke-width="5" rx="10" ry="10"  stroke-opacity="0.049999999999999996" transform="translate(1, 1)"></rect><rect x="0.5" y="0.5" width="70" height="30" strokeWidth="3" fill="none" stroke="black" stroke-width="3" rx="10" ry="10"  stroke-opacity="0.09999999999999999" transform="translate(1, 1)"></rect><rect x="0.5" y="0.5" width="70" height="30" strokeWidth="3" fill="none" stroke="black" stroke-width="1" rx="10" ry="10"  stroke-opacity="0.15" transform="translate(1, 1)"></rect><rect x="0.5" y="0.5" width="70" height="30" strokeWidth="3" fill="#7cb5ec" stroke="white" stroke-width="3" rx="10" ry="10"></rect><text x="17.3125"  style="font-size:10px;font-weight:bold;color:white;fill:white;" y="15">create</text></g><path fill="none" d="M 0 0 C 0 11.11111111111111 135 0 135 20" stroke="#434348" stroke-width="2" transform="translate(550,130)"></path><path fill="none" d="M 0 0 C 0 11.11111111111111 180 0 180 20" stroke="#434348" stroke-width="2" transform="translate(370,80)"></path><g class="highcharts-series-group" ></g><text x="300" text-anchor="middle" class="highcharts-title"  style="color:#333333;font-size:18px;fill:#333333;width:536px;" y="24">demo</text><g class="highcharts-legend" ><g ><g></g></g></g><g class="highcharts-tooltip"  style="cursor:default;padding:0;pointer-events:none;white-space:nowrap;" transform="translate(0,-9999)"><path fill="none" d="M 3.5 0.5 L 13.5 0.5 C 16.5 0.5 16.5 0.5 16.5 3.5 L 16.5 13.5 C 16.5 16.5 16.5 16.5 13.5 16.5 L 3.5 16.5 C 0.5 16.5 0.5 16.5 0.5 13.5 L 0.5 3.5 C 0.5 0.5 0.5 0.5 3.5 0.5"  stroke="black" stroke-opacity="0.049999999999999996" stroke-width="5" transform="translate(1, 1)"></path><path fill="none" d="M 3.5 0.5 L 13.5 0.5 C 16.5 0.5 16.5 0.5 16.5 3.5 L 16.5 13.5 C 16.5 16.5 16.5 16.5 13.5 16.5 L 3.5 16.5 C 0.5 16.5 0.5 16.5 0.5 13.5 L 0.5 3.5 C 0.5 0.5 0.5 0.5 3.5 0.5"  stroke="black" stroke-opacity="0.09999999999999999" stroke-width="3" transform="translate(1, 1)"></path><path fill="none" d="M 3.5 0.5 L 13.5 0.5 C 16.5 0.5 16.5 0.5 16.5 3.5 L 16.5 13.5 C 16.5 16.5 16.5 16.5 13.5 16.5 L 3.5 16.5 C 0.5 16.5 0.5 16.5 0.5 13.5 L 0.5 3.5 C 0.5 0.5 0.5 0.5 3.5 0.5"  stroke="black" stroke-opacity="0.15" stroke-width="1" transform="translate(1, 1)"></path><path fill="rgb(249, 249, 249)" fill-opacity=" .85" d="M 3.5 0.5 L 13.5 0.5 C 16.5 0.5 16.5 0.5 16.5 3.5 L 16.5 13.5 C 16.5 16.5 16.5 16.5 13.5 16.5 L 3.5 16.5 C 0.5 16.5 0.5 16.5 0.5 13.5 L 0.5 3.5 C 0.5 0.5 0.5 0.5 3.5 0.5"></path><text x="8"  style="font-size:12px;color:#333333;fill:#333333;" y="20"></text></g><text x="590" text-anchor="end"  style="cursor:pointer;color:#909090;font-size:9px;fill:#909090;" y="395">Highcharts.com</text></svg>